HIERARCHY
ROOT Hips
{
	OFFSET	0.00	0.00	0.00
	CHANNELS 6 Xposition Yposition Zposition Zrotation Xrotation Yrotation
	JOINT LeftUpLeg
	{
		OFFSET	 0.126116	-0.065224	 0.014019
		CHANNELS 3 Zrotation Xrotation Yrotation
		JOINT LeftLeg
		{
			OFFSET	 0.000000	 0.569914	 0.000000
			CHANNELS 3 Zrotation Xrotation Yrotation
			JOINT LeftFoot
			{
				OFFSET	 0.000000	 0.544423	 0.000000
				CHANNELS 3 Zrotation Xrotation Yrotation
				JOINT LeftToeBase
				{
					OFFSET	 0.000000	 0.207117	 0.000000
					CHANNELS 3 Zrotation Xrotation Yrotation
					End Site
					{
						OFFSET	 0.000000	 0.207117	 0.000000
					}
				}
			}
		}
	}
	JOINT RightUpLeg
	{
		OFFSET	-0.124023	-0.065224	 0.008373
		CHANNELS 3 Zrotation Xrotation Yrotation
		JOINT RightLeg
		{
			OFFSET	 0.000000	 0.570047	 0.000000
			CHANNELS 3 Zrotation Xrotation Yrotation
			JOINT RightFoot
			{
				OFFSET	 0.000000	 0.544354	 0.000000
				CHANNELS 3 Zrotation Xrotation Yrotation
				JOINT RightToeBase
				{
					OFFSET	 0.000000	 0.207540	 0.000000
					CHANNELS 3 Zrotation Xrotation Yrotation
					End Site
					{
						OFFSET	 0.000000	 0.207540	 0.000000
					}
				}
			}
		}
	}
	JOINT Spine
	{
		OFFSET	 0.000184	 0.117403	 0.007763
		CHANNELS 3 Zrotation Xrotation Yrotation
		JOINT Spine1
		{
			OFFSET	 0.000000	 0.137269	 0.000000
			CHANNELS 3 Zrotation Xrotation Yrotation
			JOINT Spine2
			{
				OFFSET	 0.000000	 0.156879	 0.000000
				CHANNELS 3 Zrotation Xrotation Yrotation
				JOINT LeftShoulder
				{
					OFFSET	 0.080501	 0.160143	 0.002496
					CHANNELS 3 Zrotation Xrotation Yrotation
					JOINT LeftArm
					{
						OFFSET	 0.000000	 0.164363	 0.000000
						CHANNELS 3 Zrotation Xrotation Yrotation
						JOINT LeftForeArm
						{
							OFFSET	 0.000000	 0.364576	 0.000000
							CHANNELS 3 Zrotation Xrotation Yrotation
							JOINT LeftHand
							{
								OFFSET	 0.000000	 0.360812	 0.000000
								CHANNELS 3 Zrotation Xrotation Yrotation
								JOINT LeftHandIndex1
								{
									OFFSET	 0.000000	 0.086006	 0.000000
									CHANNELS 3 Zrotation Xrotation Yrotation
									JOINT LeftHandIndex2
									{
										OFFSET	 0.000000	 0.047237	 0.000000
										CHANNELS 3 Zrotation Xrotation Yrotation
										JOINT LeftHandIndex3
										{
											OFFSET	-0.004284	 0.038165	 0.000551
											CHANNELS 3 Zrotation Xrotation Yrotation
											End Site
											{
												OFFSET	-0.004284	 0.038165	 0.000551
											}
										}
									}
								}
							}
						}
					}
				}
				JOINT Neck
				{
					OFFSET	 0.000000	 0.176489	 0.000000
					CHANNELS 3 Zrotation Xrotation Yrotation
					JOINT Head
					{
						OFFSET	 0.000000	 0.077941	 0.001747
						CHANNELS 3 Zrotation Xrotation Yrotation
						End Site
						{
							OFFSET	 0.000000	 0.077941	 0.001747
						}
					}
				}
				JOINT RightShoulder
				{
					OFFSET	-0.080363	 0.159706	-0.000306
					CHANNELS 3 Zrotation Xrotation Yrotation
					JOINT RightArm
					{
						OFFSET	 0.000000	 0.164196	 0.000000
						CHANNELS 3 Zrotation Xrotation Yrotation
						JOINT RightForeArm
						{
							OFFSET	 0.000000	 0.365611	 0.000000
							CHANNELS 3 Zrotation Xrotation Yrotation
							JOINT RightHand
							{
								OFFSET	 0.000000	 0.360648	 0.000000
								CHANNELS 3 Zrotation Xrotation Yrotation
								JOINT RightHandIndex1
								{
									OFFSET	 0.000000	 0.069977	 0.000000
									CHANNELS 3 Zrotation Xrotation Yrotation
									JOINT RightHandIndex2
									{
										OFFSET	 0.000000	 0.052305	 0.000000
										CHANNELS 3 Zrotation Xrotation Yrotation
										JOINT RightHandIndex3
										{
											OFFSET	 0.009002	 0.042196	 0.000782
											CHANNELS 3 Zrotation Xrotation Yrotation
											End Site
											{
												OFFSET	 0.009002	 0.042196	 0.000782
											}
										}
									}
								}
							}
						}
					}
				}
			}
		}
	}
}
MOTION
Frames:    4
Frame Time: 0.03333334
-0.000201	 1.269123	-0.027585	-0.031148	 3.103109	 178.807400	-176.732300	 3.439658	-21.962410	 3.277421	-16.150110	 2.928293	-6.119073	 69.738230	 7.036776	 1.331492	 28.938720	-2.729976	 176.341600	 3.178882	 25.459160	-5.051262	-16.197210	-6.445355	 3.650271	 70.996190	-2.091189	-1.305360	 28.580650	 2.604561	-1.141266	 3.340161	 1.156799	-1.592139	 3.177808	-0.207623	-1.610153	-1.478904	-3.753969	-113.447100	 5.126190	 93.000100	 13.375200	 52.522000	 32.339920	 5.065583	-0.261667	-0.072234	 4.455559	-7.029454	-10.776000	-6.580301	 5.266122	 0.000000	 0.000000	 0.000000	 0.000000	 0.000000	 0.000000	 0.000000	 3.830648	-0.645753	-0.250351	 3.213285	 1.162497	 0.669970	 114.205600	-4.427779	-88.482930	-48.047260	 9.506190	 47.400630	-90.360840	-2.252875	-2.208712	-24.508090	-11.784900	-27.575200	-0.359781	 10.582440	 0.744568	 11.977790	 9.317307	-2.096064	-8.359142	 3.150334	 0.104224
 0.001226	 1.268550	-0.064948	 0.104396	 2.850922	 178.737700	-176.392100	 4.114228	-22.008170	 3.660668	-17.921250	 3.016816	-6.879165	 71.035070	 7.502255	 1.331492	 28.938720	-2.729976	 176.579300	 1.057402	 25.329250	-4.757743	-15.303510	-6.404710	 4.332294	 72.360870	-2.210856	-1.305376	 28.580740	 2.600472	-1.029119	 3.071487	 1.167185	-1.515997	 3.073154	-0.175855	-1.648515	-1.452068	-3.745266	-113.447200	 5.117517	 92.998180	 12.924900	 52.700630	 32.769310	 4.988505	-0.256572	-0.072634	 4.661134	-7.159968	-10.815180	-6.580301	 5.266122	 0.000000	 0.000000	 0.000000	 0.000000	 0.000000	 0.000000	 0.000000	 3.844756	-0.678122	-0.254743	 3.266380	 1.180743	 0.639478	 114.203100	-4.410577	-88.495370	-46.028250	 9.682754	 45.604050	-89.557760	-2.252076	-2.177145	-28.631460	-11.024010	-27.765180	-0.359778	 10.582350	 0.744568	 11.977790	 9.317221	-2.096047	-8.359141	 3.150289	 0.104229
 0.003045	 1.268022	-0.102551	 0.259087	 2.629562	 178.617100	-176.183700	 3.868942	-22.097310	 3.665337	-17.942730	 2.971080	-7.337502	 71.442320	 7.774436	 1.331492	 28.938720	-2.729976	 176.926600	-1.655339	 25.174800	-4.112511	-13.311070	-6.323400	 4.685153	 73.183110	-2.095338	-1.305408	 28.580920	 2.592336	-0.926124	 2.816635	 1.195632	-1.452519	 2.927921	-0.110869	-1.683604	-1.427940	-3.728318	-113.447500	 5.100278	 92.994420	 12.231770	 52.761350	 33.450780	 4.939296	-0.251827	-0.072815	 4.999060	-7.157540	-10.909130	-6.580301	 5.266122	 0.000000	 0.000000	 0.000000	 0.000000	 0.000000	 0.000000	 0.000000	 3.872823	-0.742535	-0.263458	 3.372096	 1.217012	 0.578697	 114.198100	-4.376383	-88.520110	-43.358470	 7.586639	 43.125950	-85.196280	-2.242514	-2.005853	-37.086230	-9.398181	-27.321960	-0.359773	 10.582180	 0.744568	 11.977790	 9.317051	-2.096013	-8.359138	 3.150199	 0.104237
 0.005185	 1.267603	-0.136667	 0.422851	 2.458557	 178.465500	-176.098200	 2.861760	-22.211000	 3.348495	-16.481210	 2.815509	-7.432598	 71.061100	 7.785495	 1.331492	 28.938720	-2.729976	 177.382300	-4.896748	 25.024140	-3.064743	-10.003080	-6.216237	 4.500648	 73.162920	-1.626038	-1.305450	 28.581160	 2.581563	-0.832707	 2.602085	 1.241114	-1.416173	 2.731476	-0.018044	-1.707680	-1.393553	-3.705852	-113.447800	 5.077477	 92.989410	 11.313990	 52.668830	 34.346070	 4.920259	-0.248004	-0.072945	 5.474602	-7.025998	-11.024750	-6.580301	 5.266122	 0.000000	 0.000000	 0.000000	 0.000000	 0.000000	 0.000000	 0.000000	 3.909968	-0.827824	-0.274950	 3.512209	 1.264822	 0.498036	 114.191600	-4.331083	-88.552860	-41.406190	 2.942905	 40.491330	-75.588290	-2.177432	-1.633930	-50.307400	-7.756713	-26.489950	-0.359766	 10.581950	 0.744568	 11.977790	 9.316826	-2.095967	-8.359134	 3.150080	 0.104248
